<?xml version="1.0" encoding="utf-8"?>
<!-- Generator: Adobe Illustrator 24.3.0, SVG Export Plug-In . SVG Version: 6.00 Build 0)  -->
<svg version="1.1" id="bag" xmlns="http://www.w3.org/2000/svg" xmlns:xlink="http://www.w3.org/1999/xlink" x="0px" y="0px"
	 viewBox="0 0 60 60" style="enable-background:new 0 0 60 60;" xml:space="preserve">
<style type="text/css">
	.st0{fill:#EEE8E1;}
	st0{ cursor: pointer; }
	.st0:hover { fill: #ffd314 !important;}
</style>
<path id="bag_1_" class="st0" d="M37.7,15.9v2.6h-2.4v-1.7c0-2.8-2-5-4.3-5h-0.6c-2.4,0-4.3,2.3-4.3,5v1.7h-2.4v-2.6
	c0-3.8,2.7-7,6-7h2.1C35,8.9,37.7,12,37.7,15.9z M31,13.8h-0.6c-1.4,0-2.5,1.3-2.5,2.9v1.7h5.6v-1.7C33.5,15.1,32.3,13.8,31,13.8
	L31,13.8z M30.5,20.6c-1,0-1.9,0.8-1.9,1.9c0,1,0.8,1.9,1.9,1.9c1,0,1.9-0.8,1.9-1.9l0,0C32.4,21.4,31.6,20.6,30.5,20.6z M60,30
	c0,16.6-13.4,30-30,30S0,46.6,0,30S13.4,0,30,0S60,13.4,60,30z M46.1,47.9l-3.6-29.5h-3v-2.6c0-5-3.5-9.1-7.8-9.1h-2.1
	c-4.3,0-7.8,4.1-7.8,9.1v2.6h-3.2L15,47.9H46.1z"/>
</svg>
