<?xml version="1.0" encoding="utf-8"?>
<!-- Generator: Adobe Illustrator 24.3.0, SVG Export Plug-In . SVG Version: 6.00 Build 0)  -->
<svg version="1.1" id="pack" xmlns="http://www.w3.org/2000/svg" xmlns:xlink="http://www.w3.org/1999/xlink" x="0px" y="0px"
	 viewBox="0 0 421 421" style="enable-background:new 0 0 421 421;" xml:space="preserve">
<style type="text/css">
	.st0{fill:#eee8e1;}
	.st0:hover{fill:#ffd314;}
</style>
<path id="pack_1_" class="st0" d="M129.6,226c-18.4,3.1-33.8-8.8-34.5-26.6s13.6-34.7,32-37.8s33.8,8.8,34.5,26.6
	S147.9,222.9,129.6,226z M178.7,217.3c-19.2,3.3-33.3,21.2-31.6,40s18.6,31.4,37.8,28.1s33.3-21.2,31.6-40S197.9,214,178.7,217.3z
	 M255.7,142.3c14-1.2,26.5-13.1,27.9-26.4s-8.9-23.2-23-21.9s-26.5,13.1-27.9,26.4S241.6,143.6,255.7,142.3L255.7,142.3z
	 M196.9,181.4c16.4-1.6,30.3-15.5,31.2-31.2s-11.7-27.1-28-25.6s-30.3,15.5-31.2,31.2S180.5,182.9,196.9,181.4z M308.6,127.3
	c-14.7,1.2-27.7,13.6-29.1,27.6s9.5,24.3,24.1,23.1s27.7-13.6,29-27.6S323.3,126.1,308.6,127.3L308.6,127.3z M421,210.5
	C421,326.8,326.8,421,210.5,421S0,326.8,0,210.5S94.2,0,210.5,0S421,94.2,421,210.5z M176.3,331.6L52.5,197.4l5.7,64.3l118.1,121.9
	L176.3,331.6z M179,323.1l191.1-175.7L253.5,75.5L54.4,188.9L179,323.1z M367.2,213.5l5.7-59.5L182,331.6v52.9L367.2,213.5z
	 M247.4,169.6c-17.1,1-31.3,15.5-31.6,32.2s13.3,29.5,30.5,28.5s31.3-15.5,31.6-32.2S264.5,168.6,247.4,169.6z"/>
</svg>
