<?xml version="1.0" encoding="utf-8"?>
<!-- Generator: Adobe Illustrator 24.3.0, SVG Export Plug-In . SVG Version: 6.00 Build 0)  -->
<svg version="1.1" id="bag" xmlns="http://www.w3.org/2000/svg" xmlns:xlink="http://www.w3.org/1999/xlink" x="0px" y="0px"
	 viewBox="0 0 421 421" style="enable-background:new 0 0 421 421;" xml:space="preserve">
<style type="text/css">
	.st0{fill:#eee8e1;}
	.st0:hover{fill:#ffd314 !important;}
</style>
<path id="bag_1_" class="st0" d="M264.6,111.3v18.1h-16.9v-12.2c0-19.5-13.7-35.4-30.5-35.4h-4.1c-16.8,0-30.5,15.9-30.5,35.4v12.2
	h-16.9v-18.1c0-26.8,18.9-48.8,42-48.8h14.9C245.7,62.5,264.6,84.5,264.6,111.3z M217.2,96.7h-4.1c-9.7,0-17.6,9.2-17.6,20.4v12.2
	h39.3v-12.2C234.8,105.9,226.9,96.7,217.2,96.7L217.2,96.7z M214.3,144.5c-7.2,0-13,5.8-13,13s5.8,13,13,13s13-5.8,13-13v0
	C227.3,150.3,221.5,144.5,214.3,144.5z M421,210.5C421,326.8,326.8,421,210.5,421S0,326.8,0,210.5S94.2,0,210.5,0
	S421,94.2,421,210.5z M323.5,336l-25-206.7h-21v-18.1c0-35.2-24.6-63.8-54.9-63.8h-14.9c-30.2,0-54.9,28.6-54.9,63.8v18.1H130
	L105.1,336H323.5z"/>
</svg>
