<?xml version="1.0" encoding="utf-8"?>
<!-- Generator: Adobe Illustrator 24.3.0, SVG Export Plug-In . SVG Version: 6.00 Build 0)  -->
<svg version="1.1" id="bottle" xmlns="http://www.w3.org/2000/svg" xmlns:xlink="http://www.w3.org/1999/xlink" x="0px" y="0px"
	 viewBox="0 0 60 60" style="enable-background:new 0 0 60 60;" xml:space="preserve">
<style type="text/css">
	.st0{fill:#EEE8E1;}
	st0{ cursor: pointer; }
	.st0:hover { fill: #ffd314 !important;}
</style>
<path id="bottle_1_" class="st0" d="M30,0C13.4,0,0,13.4,0,30s13.4,30,30,30s30-13.4,30-30S46.6,0,30,0z M27.7,20.4
	c0-0.1,0.1-0.3,0.1-0.4c0.8-2.6,1.8-5.5,2.4-6.8c0.2-0.4,0.6-1.2,1-2.2c0.5-1.2,1.4-2.9,1.8-3.9C33,6.5,33,5.9,33.2,5.4
	c0.1-0.3,0.4-1.4,1.2-2.2l0.1-0.1l0.1-0.1c1.9-1.6,4.5-1,5.5-0.7l0,0l0.1,0l0.1,0l0,0c0.9,0.3,3.4,1.4,4,3.8l0,0.1l0,0.1
	c0.2,1.1-0.2,2.1-0.3,2.5c-0.2,0.5-0.5,1-0.9,1.4c-0.2,1.1-0.6,3-0.8,4.3c-0.2,1-0.4,1.9-0.4,2.4c-0.3,1.4-1.2,4.3-2,7
	c0,0.1-0.1,0.3-0.1,0.4c-0.4,1.3-0.5,1.5,0.1,2.8c1.1,2.5,0.3,4.9-0.1,6l-1,3.2c-0.3,0-0.7-0.1-1-0.1c-0.7-0.1-1.5-0.2-2.2-0.4
	c0.6-1.9,1.1-3.4,1.2-3.7c0.3-1,0.8-2.4,0.2-3.8c-1.1-2.6-0.6-3.7,0-5.4c0.6-1.7,1.7-5.2,1.9-6.6s1.3-7.5,1.4-7.8
	c0.1-0.3,0.1-0.8,0.4-0.7c0.3,0.1,0.3,0.3,0.3,0.1c0-0.2,0.2-0.6,0.1-1c-0.2-0.9-1.7-1.4-1.9-1.5s-1.8-0.5-2.4,0.1
	c-0.3,0.3-0.4,0.7-0.5,0.9c-0.1,0.2,0,0,0.3,0.1s0,0.5-0.1,0.8c-0.1,0.3-2.8,5.9-3.3,7.2c-0.6,1.2-1.7,4.7-2.3,6.5
	c-0.6,1.8-0.8,2.9-3.2,4.4c-1.3,0.8-1.8,2.2-2.1,3.2l-1.5,4.7l0,0c-1.1-0.3-2.1-0.7-3-1l1.5-4.7c0.4-1.1,1.1-3.5,3.4-4.9
	C27.2,21.9,27.3,21.7,27.7,20.4z M35.2,47.4c-0.2,0.5-0.4,1.2-0.6,1.9c-1,3.6-1.8,5.8-3.1,7.1c-1.3,1.2-3.4,1.7-5.5,1.7
	c-1.2,0-2.4-0.2-3.6-0.5c-2.8-0.9-6.1-3.4-6.7-6.2c-0.4-1.8,0.4-4,1.6-7.5c0.2-0.7,0.5-1.3,0.6-1.8l1.1-3.3c0.9,0.4,1.9,0.8,2.8,1.2
	l0.2,0.1c-0.4,1.4-0.8,2.5-1,3.1c-0.8,2.4-2.4,6.4-2.1,7.7c0.3,1.3,2.5,3.2,4.5,3.8c2,0.7,4.9,0.4,5.9-0.5s2-5.1,2.8-7.5l1.1-3.3
	c1.1,0.2,2.1,0.4,3.2,0.5L35.2,47.4z M56.8,38.9c-0.5,0.5-1.1,0.9-1.7,1.3c-1,0.6-2.1,1-3.7,1.4c-2.2,0.6-4.7,0.9-7.5,1
	c-0.6,0-1.1,0-1.7,0c-4.2,0-8.6-0.6-13.1-1.8c-0.6-0.2-1.3-0.4-1.8-0.5l-0.1,0c-0.5-0.2-1.1-0.3-1.7-0.5c-1.2-0.4-2.3-0.8-3.5-1.3
	c-2.2-0.9-4.5-1.9-6.7-3c-1.8-0.9-4.2-2.2-6.4-3.9c-0.5-0.4-1-0.8-1.5-1.3c-0.5-0.5-1-1-1.4-1.5c-0.5-0.6-0.8-1.3-1.1-2
	c-0.3-0.8-0.4-1.8-0.2-2.6c0.2-0.9,0.6-1.7,1.2-2.4c0.5-0.6,1.2-1.1,1.8-1.5c0.6-0.4,1.3-0.6,1.9-0.9h0c0.6-0.2,1.3-0.4,1.9-0.6
	c1.3-0.3,2.5-0.5,3.8-0.6C16.8,18,18,18,19.4,18l0,0c1.2,0,2.5,0,3.7,0.1c1,0.1,2,0.2,3,0.3c-0.1,0.5-0.3,0.9-0.4,1.4
	c0,0.2-0.1,0.3-0.1,0.4c-0.1,0.3-0.2,0.6-0.3,0.8c0,0-0.1,0.1-0.6,0.4c-0.5,0.3-0.9,0.6-1.3,1c-1.4-0.1-2.7-0.2-4-0.3
	c-2.6-0.1-4.8,0-6.8,0.4c-0.5,0.1-1,0.2-1.6,0.4c-0.5,0.1-1,0.3-1.4,0.5c-0.9,0.4-1.4,0.9-1.6,1.4c-0.1,0.3-0.1,0.6,0,0.9
	c0.1,0.4,0.3,0.8,0.6,1.2c0.3,0.4,0.6,0.8,1,1.2c0.4,0.4,0.8,0.8,1.2,1.1c0.4,0.4,0.9,0.7,1.3,1s0.9,0.6,1.4,0.9c1,0.6,2,1.2,3,1.6
	c2.1,1,4.3,1.8,6.5,2.4c1.1,0.3,2.3,0.6,3.4,0.9c1,0.3,2.2,0.5,3.4,0.8c2.4,0.5,4.7,0.9,7,1.3c2.8,0.4,4.9,0.7,7,0.8
	c1.3,0.1,2.4,0.1,3.5,0.1c1.1,0,2.3-0.1,3.4-0.3c1.2-0.2,2.3-0.5,3.1-0.9c0.4-0.2,0.8-0.5,1.2-0.8c0.6-0.5,0.8-1.4,0.5-2.1
	c-0.2-0.4-0.4-0.9-0.7-1.2c-0.6-0.8-1.3-1.5-2.3-2.2c-0.9-0.7-1.9-1.3-2.9-1.8c-0.9-0.5-1.9-0.9-3.1-1.5c-1.7-0.7-3.4-1.3-5.7-2.1
	c0-0.1-0.1-0.2-0.1-0.3c0.1-0.3,0.1-0.6,0.2-0.8c0-0.1,0.1-0.3,0.1-0.4c0.3-0.8,0.5-1.7,0.8-2.5c2.1,0.8,4.2,1.8,6.2,2.9
	c2.4,1.4,4.4,2.8,6.2,4.3c1.2,1.1,2,2,2.6,2.9c0.4,0.6,0.7,1.3,0.9,2C58.4,36,58,37.7,56.8,38.9L56.8,38.9z M39.2,5.4L39.2,5.4
	L39.2,5.4L39.2,5.4z"/>
</svg>
