<?xml version="1.0" encoding="utf-8"?>
<!-- Generator: Adobe Illustrator 24.3.0, SVG Export Plug-In . SVG Version: 6.00 Build 0)  -->
<svg version="1.1" id="vip" xmlns="http://www.w3.org/2000/svg" xmlns:xlink="http://www.w3.org/1999/xlink" x="0px" y="0px"
	 viewBox="0 0 60 60" style="enable-background:new 0 0 60 60;" xml:space="preserve">
<style type="text/css">
	.st0{fill:#EEE8E1;}
	st0{ cursor: pointer; }
	.st0:hover { fill: #ffd314 !important;}
</style>
<path id="vip_1_" class="st0" d="M30,0C13.4,0,0,13.4,0,30s13.4,30,30,30s30-13.4,30-30S46.6,0,30,0z M37.4,8.7l7.3,8.7l-8.8-7.1
	L37.4,8.7z M24.7,9l19.6,8.8l-20.6-6.2L24.7,9z M6.9,28.4l3.3-16.3l36.3,7.3v0l-34.8-4.9L6.9,28.4z M47.3,21.4v8.7
	c-12.8-1.6-27.6,0.8-34.5,4.7V21.4H47.3z M12.7,37.8c11.6-6.3,26.5-6.9,34.5-7.1V41H12.7V37.8z M49.5,50.4l-36.3-7.3v0L48,48l4.7-14
	L49.5,50.4z"/>
</svg>
