<?xml version="1.0" encoding="utf-8"?>
<!-- Generator: Adobe Illustrator 24.3.0, SVG Export Plug-In . SVG Version: 6.00 Build 0)  -->
<svg version="1.1" id="bottle" xmlns="http://www.w3.org/2000/svg" xmlns:xlink="http://www.w3.org/1999/xlink" x="0px" y="0px"
	 viewBox="0 0 421 421" style="enable-background:new 0 0 421 421;" xml:space="preserve">
<style type="text/css">
	.st0{fill:#eee8e1;}
	.st0:hover{fill:#ffd314 !important;}
</style>
<path id="bottle_1_" class="st0" d="M210.5,0C94.2,0,0,94.2,0,210.5S94.2,421,210.5,421S421,326.8,421,210.5S326.8,0,210.5,0z
	 M194.3,143.2c0.3-1,0.6-2,1-3c5.9-18.4,12.6-38.9,16.8-48c1.3-2.7,4-8.5,7.2-15.2c3.8-8.1,9.5-20.1,12.9-27.5
	c-0.7-3.9-0.4-7.9,0.8-11.6c0.8-2.3,3-9.5,8.6-15.2l0.6-0.6l0.6-0.6c13.1-11.5,31.7-7.3,38.4-5.2l0,0l0.4,0.1l0.5,0.1l0,0
	c6.6,2.2,24.2,9.6,28.2,26.5l0.2,0.8l0.1,0.8c1.2,7.8-1.1,15-1.8,17.4c-1.2,3.8-3.2,7.2-6.1,9.9c-1.5,8-3.9,21.1-5.5,30
	c-1.3,7.3-2.5,13.6-3,16.5c-1.9,9.9-8.3,30.4-14.2,48.8c-0.3,1-0.6,2-1,3c-2.9,8.8-3.4,10.4,0.4,19.7c7.4,17.6,2,34.2-0.5,42.2
	l-7.3,22.7c-2.3-0.3-4.6-0.7-7-1c-5.1-0.8-10.2-1.6-15.4-2.6c4.3-13.3,7.6-23.7,8.3-26c2.1-6.7,5.4-16.7,1.2-26.7
	c-7.6-18.4-4-25.9-0.1-38.1s11.8-36.8,13.5-46.1s9.4-52.3,10.1-54.6s0.7-5.9,2.9-5.2s1.9,1.8,2.2,0.7s1.4-4.5,1-7
	c-1.4-6.1-11.8-9.8-13.6-10.4s-12.4-3.5-17.1,0.6c-1.8,1.9-2.9,5.2-3.3,6.3s0,0,2.2,0.7s0,3.7-0.7,5.9s-19.5,41.7-23.5,50.3
	s-11.8,33.1-15.8,45.4s-5.3,20.4-22.2,31c-9.2,5.7-12.4,15.7-14.6,22.4l-10.6,32.9l0,0c-7.6-2.2-14.7-4.6-21.4-7l10.5-32.8
	c2.6-8,7.9-24.6,24.1-34.6C191.1,153.7,191.6,152.1,194.3,143.2z M246.7,332.6c-1.2,3.7-2.5,8.2-3.9,13
	c-7.3,25.1-12.3,40.9-21.7,49.5c-9.1,8.3-23.8,11.9-38.3,11.9c-8.5,0.1-17-1.2-25.1-3.8c-19.6-6-42.8-24-46.9-43.4
	c-2.7-12.6,2.5-28.3,11.1-52.9c1.6-4.7,3.2-9.2,4.4-12.9l7.5-23.4c6.6,2.9,13.2,5.7,19.8,8.3l1.1,0.4c-3.1,9.5-5.6,17.4-6.9,21.5
	c-5.4,16.7-16.9,45-14.9,54.3s17.2,22.4,31.7,26.7c14.3,5,34.4,3.1,41.3-3.3s14-36.1,19.4-52.8l7.4-23.1c7.5,1.5,15,2.7,22.5,3.7
	L246.7,332.6z M398.2,272.7c-3.5,3.6-7.6,6.6-12,9c-7.1,4-15,7-25.7,9.8c-15.7,4-32.9,6.4-52.4,7.2c-3.9,0.1-7.8,0.2-11.8,0.2
	c-29.5,0-60.4-4.3-92-12.8c-4.4-1.2-8.8-2.5-12.5-3.6l-0.7-0.2c-3.8-1.2-7.8-2.4-11.7-3.8c-8.1-2.8-16.3-5.8-24.3-9
	c-15.7-6.3-31.6-13.4-47.1-21.3c-12.8-6.6-29.5-15.7-44.7-27.5c-3.6-2.8-7.1-5.8-10.4-9c-3.5-3.3-6.7-6.9-9.6-10.8
	c-3.2-4.2-5.8-8.9-7.6-13.9c-2.1-5.9-2.6-12.3-1.4-18.4c1.4-6.2,4.4-12,8.7-16.6c3.7-4,8.1-7.5,12.9-10.2c4.3-2.5,8.8-4.5,13.4-6.2
	h0.1c4.4-1.6,8.9-2.9,13.5-4c8.8-2.1,17.8-3.5,26.9-4.3c8-0.8,16.4-1.1,26.6-1.1l0,0c8.5,0,17.4,0.3,26.3,0.9
	c6.8,0.5,13.7,1.1,20.7,2c-1,3.2-2.1,6.5-3.1,9.7c-0.3,1.1-0.6,2.1-1,3.1c-0.5,2-1.2,3.9-2,5.8c-0.1,0.1-0.7,0.8-4.4,3.1
	c-3.2,1.9-6.1,4.2-8.9,6.7c-9.7-1-19-1.7-28.1-2.1c-18.2-0.6-33.7,0.3-47.4,2.7c-3.7,0.6-7.3,1.5-10.9,2.5c-3.4,0.9-6.7,2.1-9.8,3.6
	c-6,2.9-9.9,6.4-10.9,10c-0.6,2.1-0.5,4.4,0.1,6.5c0.8,3,2.2,5.8,3.9,8.3c2,3,4.2,5.9,6.7,8.5c2.6,2.8,5.4,5.4,8.3,7.8
	c3,2.5,6.1,4.9,9.4,7.2s6.4,4.4,10.1,6.6c6.9,4.2,14.1,8.1,21.4,11.5c14.8,6.9,30.2,12.6,45.9,17.1c8,2.4,16,4.5,23.9,6.4
	c7.3,1.8,15.2,3.6,24.2,5.5c16.7,3.5,33.1,6.5,48.8,8.9c19.6,3,34.7,4.8,49,5.9c9.1,0.7,17,1,24.3,0.9c8,0,15.9-0.6,23.8-1.9
	c8.7-1.4,15.8-3.6,21.7-6.5c3-1.5,5.8-3.4,8.2-5.7c4.1-3.7,5.5-9.6,3.5-14.8c-1.1-3.1-2.7-6.1-4.7-8.7c-3.9-5.3-9.2-10.4-16.4-15.6
	c-6.4-4.7-13.2-8.8-20.3-12.5c-6.4-3.4-13.4-6.6-22-10.3c-11.6-4.9-24.1-9.4-39.9-14.6c-0.3-0.7-0.5-1.4-0.6-2.2c0.4-2,1-4,1.7-5.9
	c0.3-1,0.6-2,1-3c1.9-5.8,3.7-11.6,5.5-17.2c14.9,5.8,29.4,12.7,43.4,20.6c17.1,9.7,31.2,19.6,43.3,30.4c8.3,7.5,14,13.8,18.5,20.5
	c2.9,4.2,5.1,8.8,6.6,13.7c3.5,11.1,0.6,23.2-7.7,31.5L398.2,272.7z M275,38l-0.2-0.1l-0.2-0.1L275,38z"/>
</svg>
