<?xml version="1.0" encoding="utf-8"?>
<!-- Generator: Adobe Illustrator 24.3.0, SVG Export Plug-In . SVG Version: 6.00 Build 0)  -->
<svg version="1.1" id="图层_1" xmlns="http://www.w3.org/2000/svg" xmlns:xlink="http://www.w3.org/1999/xlink" x="0px" y="0px"
	 viewBox="0 0 50 50" style="enable-background:new 0 0 50 50;" xml:space="preserve">
<style type="text/css">
	.st0{fill:#FFD314;}
</style>
<path class="st0" d="M14.7,38.4h33.5v2H12.3v-2h0.3L0,0.7L1.9,0L14.7,38.4z M19.7,42.1c-2.2-0.1-4,1.6-4.1,3.8
	c-0.1,2.2,1.6,4,3.8,4.1c2.2,0.1,4-1.6,4.1-3.8c0-0.1,0-0.1,0-0.2C23.5,43.9,21.8,42.2,19.7,42.1C19.7,42.1,19.7,42.1,19.7,42.1z
	 M40.5,42.1c-2.2-0.1-4,1.6-4.1,3.8c-0.1,2.2,1.6,4,3.8,4.1c2.2,0.1,4-1.6,4.1-3.8c0-0.1,0-0.1,0-0.2C44.4,43.9,42.7,42.2,40.5,42.1
	z M44.3,30.3L50,6.7H6.5l9.5,23.6L44.3,30.3z"/>
</svg>
