<?xml version="1.0" encoding="utf-8"?>
<!-- Generator: Adobe Illustrator 24.3.0, SVG Export Plug-In . SVG Version: 6.00 Build 0)  -->
<svg version="1.1" id="vip" xmlns="http://www.w3.org/2000/svg" xmlns:xlink="http://www.w3.org/1999/xlink" x="0px" y="0px"
	 viewBox="0 0 421 421" style="enable-background:new 0 0 421 421;" xml:space="preserve">
<style type="text/css">
	.st0{fill:#eee8e1;}
	.st0:hover{fill:#ffd314;}
</style>
<path id="vip_1_" class="st0" d="M210.5,0C94.2,0,0,94.2,0,210.5S94.2,421,210.5,421S421,326.8,421,210.5S326.8,0,210.5,0z
	 M262.1,61l51,61l-62-50L262.1,61z M173.3,63.3l137.8,61.9L166.4,81.5L173.3,63.3z M48.3,199.3l23-114.6L326.2,136v0.1L81.7,101.4
	L48.3,199.3z M331.7,150.5v60.9C242,200,138,217.2,89.3,244.5v-94H331.7z M89.3,265.1c81.4-44.2,185.9-48.4,242.4-49.7v72.1H89.3
	V265.1z M347.2,353.3L92.3,302.1V302l244.6,34.6l33.3-97.9L347.2,353.3z"/>
</svg>
