<?xml version="1.0" encoding="utf-8"?>
<!-- Generator: Adobe Illustrator 24.3.0, SVG Export Plug-In . SVG Version: 6.00 Build 0)  -->
<svg version="1.1" id="pack" xmlns="http://www.w3.org/2000/svg" xmlns:xlink="http://www.w3.org/1999/xlink" x="0px" y="0px"
	 viewBox="0 0 60 60" style="enable-background:new 0 0 60 60;" xml:space="preserve">
<style type="text/css">
	.st0{fill:#EEE8E1;}
	st0{ cursor: pointer; }
	.st0:hover { fill: #ffd314 !important;}
</style>
<path id="pack_1_" class="st0" d="M18.5,32.2c-2.6,0.4-4.8-1.3-4.9-3.8s1.9-4.9,4.6-5.4c2.6-0.4,4.8,1.3,4.9,3.8
	S21.1,31.8,18.5,32.2z M25.5,31c-2.7,0.5-4.7,3-4.5,5.7c0.2,2.7,2.7,4.5,5.4,4s4.7-3,4.5-5.7C30.6,32.3,28.2,30.5,25.5,31z
	 M36.4,20.3c2-0.2,3.8-1.9,4-3.8s-1.3-3.3-3.3-3.1c-2,0.2-3.8,1.9-4,3.8S34.4,20.5,36.4,20.3L36.4,20.3z M28.1,25.9
	c2.3-0.2,4.3-2.2,4.4-4.4s-1.7-3.9-4-3.6c-2.3,0.2-4.3,2.2-4.4,4.4S25.7,26.1,28.1,25.9z M44,18.1c-2.1,0.2-3.9,1.9-4.1,3.9
	s1.4,3.5,3.4,3.3s3.9-1.9,4.1-3.9C47.6,19.4,46.1,18,44,18.1L44,18.1z M60,30c0,16.6-13.4,30-30,30S0,46.6,0,30S13.4,0,30,0
	S60,13.4,60,30z M25.1,47.3L7.5,28.1l0.8,9.2l16.8,17.4V47.3z M25.5,46l27.2-25L36.1,10.8L7.8,26.9L25.5,46z M52.3,30.4l0.8-8.5
	L25.9,47.3v7.5L52.3,30.4z M35.3,24.2c-2.4,0.1-4.5,2.2-4.5,4.6s1.9,4.2,4.3,4.1c2.5-0.1,4.5-2.2,4.5-4.6
	C39.6,25.9,37.7,24,35.3,24.2z"/>
</svg>
