<svg id="图层_1" data-name="图层 1" xmlns="http://www.w3.org/2000/svg" viewBox="0 0 122.13 120"><defs><style>.cls-1{fill:#eee8e1;}.cls-2{fill:none;}</style></defs><g id="mtn_new" data-name="mtn new"><path class="cls-1" d="M84.7,69.72a6,6,0,0,0-3.45,1.73l.88-1.62a5.15,5.15,0,0,1,2.6-2.27,5.5,5.5,0,0,1,1.21-.33h.15c-.26.77-.59,1.72-.81,2.38,0,0,0,.08,0,.11A3.36,3.36,0,0,0,84.7,69.72ZM103.85,90.2a21.38,21.38,0,0,0-2-2.13,12.37,12.37,0,0,1-2.35,1.36l0,0c-.19.07-.37.14-.52.18a12.72,12.72,0,0,0,4,1.62C104.77,91.52,104.77,91.38,103.85,90.2ZM92.73,61.32a9.11,9.11,0,0,0-1,2.9l.77.44c1.36-.07,2.65-.18,3.93-.26h0c0-.07,0-.18,0-.25A16.65,16.65,0,0,0,92.73,61.32Zm7,23.49-.25-.37-1,.29ZM70.86,61.06l-.18-2.12.92-.15c1.1-.18,2.2-.33,3.37-.51-5.14.47-10.24,1.06-15.41,1.72a8.83,8.83,0,0,0,.29.92c.85,4.29-.58,6.75-.84,9.25A9.48,9.48,0,0,1,65.17,67a6.69,6.69,0,0,1,5.91,1.69l.11.11a5.33,5.33,0,0,1,1.91,1.76c.11.15.18.29.29.44l1.4,1.43.37-7,5.72-.73,0,1.06a7.82,7.82,0,0,1,1.72-1,5.54,5.54,0,0,1,1.76-.48,7.14,7.14,0,0,1,2,0l.92.26-.15.73a3.41,3.41,0,0,1,.59.07l.4.11a10.67,10.67,0,0,1,0-1.13c-.4-.26-.84-.52-1.28-.77A29.21,29.21,0,0,1,80.88,60c-2.94.29-5.91.62-8.88,1Zm32.81,22.72.51.62c.74,0,1.51,0,1.84,0h.15c-.37-.33-1.25-1.1-2.39-2A9.13,9.13,0,0,1,103.67,83.78ZM88.37,62.53a13,13,0,0,1,1-3,6.38,6.38,0,0,1-.74-.37c-1.72.15-3.41.3-5.13.48a16,16,0,0,0,2.75,1.8C87,61.87,87.67,62.2,88.37,62.53ZM77.58,83.93l2.2-.3L80.29,73l-.11-5-1.79.22Zm6.53,4.47a1.18,1.18,0,0,1,.92.41l.07.07a10.55,10.55,0,0,0,3.56,3.23,10.83,10.83,0,0,0,1.62.7,3.54,3.54,0,0,0-.34-.48c-1.24-1.69-3-3.34-4-4.88-.18,0-.44,0-.73.07-3.27.37-11,1.18-15.52,1.87a12.1,12.1,0,0,1-1.25.19c0,.14,0,.25.07.4,4.59-.59,10.43-1.21,13.51-1.5l-.08-.11,2.17,0ZM22.28,97.91a11.23,11.23,0,0,1-2.94-.48c-.07.07-.18.15-.26.22-.14-.15-.25-.29-.4-.44a7.3,7.3,0,0,1-2.46-1.65,2.14,2.14,0,0,1-.29-.33l0,0a7.9,7.9,0,0,1-1-.85,11.4,11.4,0,0,1-2.79-6.27A61.5,61.5,0,0,1,9,82.09c1.14-1,2.42-2.16,3.74-3.45a36.12,36.12,0,0,1,3.2-7.74,19.15,19.15,0,0,1,2.71-3.67c-.66.15-1.32.29-1.94.48L15.63,68l-.22-1.5-1.47.33-.14.15c-1.51,1.35-5.65,3.56-8.11,4.8-.15-.62-.26-1.24-.37-1.87,1.47-.84,3.45-2.05,5.4-3.34l-.15-1.06.84-.26c.63-.18,1.25-.37,1.91-.55a21.06,21.06,0,0,0,2.28-2c1.83.33,1.76.22,7.26-2.72s13-5,17.8-9.43c2,.88,2.9,1.32,3.82.63a97.71,97.71,0,0,0,8.29-9.44c3.23-4.11,3.12-4,4.88-4.36S60.33,33.8,62,31.12c1.87.37.62.81,4.18,6.57,2.5,2.68,2.5,3.78,2.5,3.78s2.93,6.24,4.33,7.67c.91,1.14,3,3.52,5.32,5.91l4.81-.55a14.51,14.51,0,0,0,4.22-4.3,4.75,4.75,0,0,0,2-1,3.34,3.34,0,0,0,2.13-.55c1.65-1.06,1.21-.07,2.34.55.85.44.3,2.35.41,4.18,1.76-.18,3.56-.33,5.39-.47a13.05,13.05,0,0,1,1.84-.22c.66,0,1.28-.08,1.91-.08a8.49,8.49,0,0,0-1-.66c-2.61-1.46-4.89-5.5-6.24-7.41s-2-2.42-3.6-2.42c-1.54,2.42-2.61,4.22-4.77,4.73-1.65,2.83-7.89,5.47-8.37,5.65-2.68-2.68-5.1-5.46-6.16-6.75a13.59,13.59,0,0,1-2.53-5.87c-1-1.1-.92.18-4.52-5.69S63.85,27.89,62,27.52c-1.72,2.72-2.6,5.95-4.4,6.31s-1.73.26-5,4.41a95.67,95.67,0,0,1-8.4,9.58c-.92.73-1.91.25-3.89-.63-4.88,4.52-12.44,6.57-18,9.58s-5.51,3.08-7.34,2.75c-2.94,2.94-6.5,5-10.13,7.2A55.6,55.6,0,1,1,115.6,60c0,.51,0,1,0,1.54a40.61,40.61,0,0,1-5.21-2.38l-2.79,3.7-.66-1.65c-.15-.33-1.8-.84-4.18-.66a4.76,4.76,0,0,0-4.11,3.3c2,1.43,6.16,2.54,9.68,3.31l6.68,1.5c-.18,1.21-.44,2.42-.69,3.63a48.94,48.94,0,0,1-5.18.81,3.87,3.87,0,0,1,.37.48h0c1.69,2.35,2.13,3.78,2.28,7.3a12.3,12.3,0,0,1-.11,2.31c1.36,0,2.61,0,3.71,0A59.45,59.45,0,0,0,120,60a60,60,0,1,0-104.37,40.4Q18.53,99.29,22.28,97.91ZM84.59,84.29l.11-.11c-.15-1-.22-2-.41-3.41.88-1.25,1.51-1.36,4.3,1.51a7.18,7.18,0,0,1,1.1,1.43c2.16-.15,5.14-.22,5.83-.19l3.42.19a17.11,17.11,0,0,0-1.33-1.51c-2.86-3.23-4.22-4.22-4-5,.44-.36,1.36.89,2.79,1.88.95.66,2.49,1.32,4,2.2a6,6,0,0,0-.14-1.8l-2.65-2.13c-1.21-.95-4-1.76-3.85-2.93l-.11-.11a8.89,8.89,0,0,1-1.14-1l-.07.07-.07-.07a1.43,1.43,0,0,0-.15-.11,12.32,12.32,0,0,1-1.69-1.62,10,10,0,0,1-1.39-2,8.67,8.67,0,0,1-.85-2.56c-.22.77-.66,2-1.1,3.23a7.25,7.25,0,0,0-.25.8l-.15.41-.37.18a1.42,1.42,0,0,1-.59.11,3.36,3.36,0,0,0-.84,0,4.17,4.17,0,0,0-2.64,1.54l-.55,11.3c.7-.07,1.32-.15,1.83-.18A5.85,5.85,0,0,0,84.59,84.29ZM72.11,50.72a71.49,71.49,0,0,0-5.43-8.48c-1-.59-1.76-2.46-2.42-5.1a9.08,9.08,0,0,0-1.62-2.42c-.88-.81-.44.11-.73,2.23s-.19,8-1.25,10c.26,2.24.11,3.31-1.06,6-.74,1-1.25,1.95-.63,4.74,5.1-.85,10.64-1.62,16.77-2.35A35.87,35.87,0,0,1,72.11,50.72ZM95.82,58c.44,1.36.88,2.82,1.35,4a7,7,0,0,1,5.29-3.45h.07c.7,0,3.56-.18,5.21.81l.88-1.14A21.6,21.6,0,0,1,106,56.4a4.26,4.26,0,0,1-.48-.62,18.56,18.56,0,0,0-2.45.07A14.23,14.23,0,0,0,95.82,58Zm3.92,14c-3.19-2.42-5.76-4.15-8.18-5.69a7.34,7.34,0,0,0,.81,3.45,9.28,9.28,0,0,0,1.06,1.58,9.9,9.9,0,0,0,1.47,1.39,13.82,13.82,0,0,0,1.69,1.14c.58.37,3.15,1.73,3.19,1.76a10.12,10.12,0,0,1,.88.52,12,12,0,0,1,3.3,1.28,16.75,16.75,0,0,1,5.54,4.37.91.91,0,0,1,.19.26c0-.41,0-.81,0-1.18-.14-3.3-.51-4.29-1.9-6.2a20.23,20.23,0,0,0-1.51-1.47A12.62,12.62,0,0,1,99.74,72ZM64.84,90.5v-.3c-1.28.22-2.56.48-3.85.7a.43.43,0,0,0,0,.22c.69-.11,1.36-.22,2-.37S64.15,90.61,64.84,90.5ZM30.64,59.74c-1.06.41-2.35,1.07-3.67,1.73l1.73-.33,1.21-.22V61a23.55,23.55,0,0,1,2.35-.29c.07-.08.11-.15.18-.22C33.36,59.12,33.17,58.75,30.64,59.74Zm8.19-5.46a4.45,4.45,0,0,0-3.75,3.22c-.88,1.69,1.07,1.11,4.3-1.35C40.26,55,41.87,53.94,38.83,54.28Zm35.85,19L74.13,73a12.42,12.42,0,0,1,.4,3.23ZM26.39,72.7A10.22,10.22,0,0,0,25,75.05a30.75,30.75,0,0,0,3.89-3.67,3.43,3.43,0,0,0,.7-1.07A10.55,10.55,0,0,0,26.39,72.7Zm83.92,15a11.68,11.68,0,0,1-3.08,4.11,15.06,15.06,0,0,1-3.08,2,55.71,55.71,0,0,1-8.08,8.52,37.61,37.61,0,0,1-3.37-4,9.4,9.4,0,0,1-1.4-3.12,12.3,12.3,0,0,1-3.63-1.36,13.49,13.49,0,0,1-2.86-2.16l0,0a11.32,11.32,0,0,1-1.5-1.32c-2.5.18-9.18.88-14.35,1.54.58,2.86,1.54,6.79,2.86,8.8a29.86,29.86,0,0,1,3.67,9.33,11.06,11.06,0,0,0,.84,3,55.21,55.21,0,0,1-10.53,2.13,22,22,0,0,1-.88-5.47c-.26-6,.26-9.76,0-13.87,0-.81-.07-2,0-3.45-.55.07-1,.15-1.39.22-.73.11-1.47.26-2.2.37a60.43,60.43,0,0,1,.33,6.79,85.29,85.29,0,0,0,1.25,13.94c.14.63.22,1.18.29,1.65-1,.08-2.09.08-3.12.08a54.83,54.83,0,0,1-10.5-1c.52-2.28.22-4.19.3-6.39.07-2.39,1.69-10.79,2.2-13.39-.48.07-.92.18-1.39.29-.67,2.82-1.4,6.79-2,8.4-.84,2.5-.88,4.63-1.39,6.65A28.33,28.33,0,0,1,46,113.69a55.15,55.15,0,0,1-17.58-8.08c.26-1.39.66-3.33,1.14-5.32-3.3,1-6.79,2.1-10.53,3.38A59.21,59.21,0,0,0,60,120a60,60,0,0,0,53.39-32.59C112.37,87.49,111.34,87.6,110.31,87.67ZM19.12,78.9c1-.55,2-1.14,3-1.76a15.46,15.46,0,0,1,2.71-5.69l0,0a12.11,12.11,0,0,1,2.24-1.94,1.34,1.34,0,0,0-.18.07,6.81,6.81,0,0,0-3.23,2.79c-1.21,1.58-1.62,2.24-2.35,1.8s.88-4,4.29-6.61a28.08,28.08,0,0,0,2.72-2.38A19.26,19.26,0,0,0,19,73.06a33.75,33.75,0,0,0-2.31,5C17.39,79.45,19.12,78.9,19.12,78.9ZM75.49,85l-1.4.18.37-7.08a11.69,11.69,0,0,1-2.72,6.61A12.39,12.39,0,0,1,70.39,86c1.61-.22,3.37-.44,5.13-.62ZM29.25,94.83A14.35,14.35,0,0,0,31,94.28c.22-.85.44-1.55.59-2.1l.11-.29a13.45,13.45,0,0,1-6.53.33c-1.14,1.14-2.61,2.42-4,3.56A22.61,22.61,0,0,0,29.25,94.83Zm34.6-16.66a8.73,8.73,0,0,0,.33,3.26h.08a1.93,1.93,0,0,0,1-.4,58.07,58.07,0,0,1,.7-6.31,5,5,0,0,1,.37-1.18C65.72,73.58,64.07,73.94,63.85,78.17ZM34.64,86.42c1.36-2.2,2.9-4.55,4.08-6.27a11.68,11.68,0,0,1,.62-3,19.13,19.13,0,0,0-2.86,2.09c-2.24,1.94-6.17,6.94-8.66,10a8.43,8.43,0,0,0,2.09-.47A35,35,0,0,0,34.64,86.42ZM70.2,83.34a9.66,9.66,0,0,0,2.28-6.24,8.5,8.5,0,0,0-1.14-5.39c-1-1.36-2.46-1.91-4.66-1.62a8.91,8.91,0,0,0-1.4.3l2.43,1.28,0,0,.26.14a.51.51,0,0,1,.22.15h0c1.39,1,2,2.86,1.84,5.8s-1,4.7-2,5.65A10.25,10.25,0,0,1,68,85.06,7.68,7.68,0,0,0,70.2,83.34ZM61.8,72.59a8.7,8.7,0,0,0-1.58,2.6l-.22.66c.11,1.07.11,2.43.11,3.75l1.83,1a11.49,11.49,0,0,1-.07-2.53c.22-4.19,1.8-5.8,3.41-6.35l-.91-1A7.53,7.53,0,0,0,61.8,72.59ZM60.59,87c0,.19,0,.37.07.59.26,0,.48-.11.73-.15A3.13,3.13,0,0,1,60.59,87ZM65,85.91c0-.48,0-1,.07-1.4A2.66,2.66,0,0,1,63.67,84a2,2,0,0,1-.48-.44l-3.08-3.27v3.09a4.89,4.89,0,0,0,.48.88h0A4.6,4.6,0,0,0,65,85.91Z"/></g><g id="logo"><g id="main"><path class="cls-1" d="M106.42,59.67l.08-.07s-.08,0-.11-.08S106.39,59.63,106.42,59.67Z"/><path class="cls-1" d="M94.2,55.78c-.33.22-.7.44-1,.7s-.51.4-.77.62c-7.3.77-14.23,1.65-20.69,2.68v.15q10.23-1.22,19.85-2a9.91,9.91,0,0,0-1.17,1.73,11.4,11.4,0,0,0-1.29,4.59A8.82,8.82,0,0,0,90,69.1a7.71,7.71,0,0,0,1.25,1.8,20.51,20.51,0,0,0,1.58,1.5c.07.08.14.11.22.19a12.51,12.51,0,0,1-1-1,8.64,8.64,0,0,1-1.25-1.8,9,9,0,0,1-.88-4.84,10.8,10.8,0,0,1,1.29-4.59,10,10,0,0,1,2.75-3.19,16.12,16.12,0,0,1,8.33-2.83,16,16,0,0,1,7.23.85l.25.11.15-.19a6.51,6.51,0,0,0-1.17-.55,16.46,16.46,0,0,0-7.23-.84,12.27,12.27,0,0,0-1.76.22c-16.44,1.47-31.89,3.23-45.18,5.58v.14C68.59,57.69,81.65,56.48,94.2,55.78Z"/><path class="cls-1" d="M84.44,65.17a6.36,6.36,0,0,0-1.5.41,6.92,6.92,0,0,0-2.32,1.65l0,1.72a6.34,6.34,0,0,1,3.08-2.75,5,5,0,0,1,1.51-.4c.22,0,.44,0,.66-.08.07-.25.15-.47.18-.62A9,9,0,0,0,84.44,65.17Z"/><path class="cls-1" d="M104.73,70.72c-1-.66-2.42-1.4-4.14-2.28a30.09,30.09,0,0,1-2.83-1.61l.15.14a17.86,17.86,0,0,0,3.48,2.17c1.73.88,3.12,1.61,4.15,2.27a.38.38,0,0,1,.18.15A4.47,4.47,0,0,0,104.73,70.72Z"/><path class="cls-1" d="M88.73,85.58c.88-.15,2.68-.26,4.33-.33,1-.3,1.84-.55,2.39-.7a62.19,62.19,0,0,0-7.49.37Z"/><path class="cls-1" d="M109.5,84.84c2.65,0,5,0,6.87,0l4.36-.44s-4.51-.33-11-.26A5.21,5.21,0,0,1,109.5,84.84Z"/><path class="cls-1" d="M100,76.88a3.53,3.53,0,0,1,.73.92,8.43,8.43,0,0,1,.48,5.21,9.34,9.34,0,0,1-.29,1.32s.4,0,1,0l.11-.62a8.16,8.16,0,0,0-.48-5.21A4.48,4.48,0,0,0,100,76.88Z"/><path class="cls-1" d="M98.5,88c.91-.44,2.6-1.25,3-2.17a20.52,20.52,0,0,0,4-1c-.59,0-2.75,0-3.49.07a6.38,6.38,0,0,1-1.28.22c-.4.92-2.09,1.73-3,2.17a8.19,8.19,0,0,1-4.11.58,7.15,7.15,0,0,1-3-.95s-.07,0-.07,0a7,7,0,0,0,3.89,1.57A7.77,7.77,0,0,0,98.5,88Z"/><path class="cls-1" d="M23.67,90.06a4,4,0,0,1-.66-.3,3.07,3.07,0,0,0,1.47,1,11.88,11.88,0,0,0,6.53-.3,40.46,40.46,0,0,0,6.2-3.23c0-.66,0-1.17,0-1.17a45.78,45.78,0,0,1-7,3.74A12,12,0,0,1,23.67,90.06Z"/><polygon class="cls-1" points="76.04 66.24 75.16 84 76 83.89 76.84 66.9 79.82 66.53 79.82 65.76 76.04 66.24"/><path class="cls-1" d="M25.8,63.41a28.18,28.18,0,0,0-2.57,1.4c-2.39.55-4.66,1.17-6.83,1.8v.11q3-.72,6-1.33a18.17,18.17,0,0,0-5.62,6.06A31.5,31.5,0,0,0,12.84,83c-.14,2-.29,7.78,2.65,10.75a5.27,5.27,0,0,0,.91.74.15.15,0,0,0-.11-.07c-3-3-2.79-8.74-2.64-10.76a31.5,31.5,0,0,1,3.89-11.52c2.64-4.66,6.72-7,10.28-8.59,3.08-1.32,7.52-1.28,9.9-1.06l.22-.52a26.16,26.16,0,0,0-9.06.34V62.2c-6.27,1.21-12.15,2.53-17.28,4v.11C16.55,65.1,21.25,64.15,25.8,63.41Z"/><path class="cls-1" d="M83.6,89a1,1,0,0,0-.33,0,10.53,10.53,0,0,0,2.09,2A9.53,9.53,0,0,1,83.6,89Z"/><path class="cls-1" d="M41,86.86a5,5,0,0,0,1.36,1.32c-.18-.22-.37-.4-.55-.66a6.56,6.56,0,0,1-1.1-2.75,15.4,15.4,0,0,1-.19-3.56,11.86,11.86,0,0,1,.77-3.67,9.06,9.06,0,0,1,1.77-2.9,8.75,8.75,0,0,1,5.54-2.86,6.34,6.34,0,0,1,4.25.73c-1.17-1.21-2.86-1.65-5.06-1.39A8.58,8.58,0,0,0,42.24,74a9.81,9.81,0,0,0-1.76,2.9,10.77,10.77,0,0,0-.77,3.67,15.54,15.54,0,0,0,.18,3.56A6.56,6.56,0,0,0,41,86.86Z"/><path class="cls-1" d="M68.88,87.93c5.8-.85,16.84-2,17-2l1.55-1.47-.77-.7L85,85.25c-.11,0-11.16,1.17-17,2-38.35,6.12-60.77,18-60.77,18,4.55-1.72,8.77-3.22,12.77-4.58A247.25,247.25,0,0,1,68.88,87.93Z"/><path class="cls-1" d="M63.74,82.75a1.91,1.91,0,0,0,1.47.3c2.09-.26,3.19-2.21,3.38-5.77.14-2.53-.33-4.18-1.4-4.91a.83.83,0,0,0-.25-.15c.69.88,1,2.35.88,4.44-.19,3.6-1.32,5.51-3.38,5.76a2,2,0,0,1-1.17-.14A1.91,1.91,0,0,0,63.74,82.75Z"/><path class="cls-1" d="M65.28,68a8.61,8.61,0,0,0-5.54,2.86A10,10,0,0,0,58,73.76a11,11,0,0,0-.77,3.67A16.12,16.12,0,0,0,57.39,81a6.91,6.91,0,0,0,1.11,2.75,5,5,0,0,0,1.35,1.32c-.18-.22-.36-.4-.55-.66a6.64,6.64,0,0,1-1.1-2.75A15.44,15.44,0,0,1,58,78.09a11.58,11.58,0,0,1,.77-3.67,9.22,9.22,0,0,1,1.76-2.9,8.78,8.78,0,0,1,5.54-2.86,6.36,6.36,0,0,1,4.26.73A5.71,5.71,0,0,0,65.28,68Z"/><path class="cls-1" d="M49.72,75.49a.83.83,0,0,0-.25-.15c.7.88,1,2.35.88,4.44-.18,3.6-1.32,5.5-3.38,5.76a2,2,0,0,1-1.17-.15,2,2,0,0,0,2,.78C49.87,85.91,51,84,51.16,80.4,51.27,77.87,50.79,76.22,49.72,75.49Z"/><path id="o_1" data-name="o 1" class="cls-1" d="M42.31,87.93a6.55,6.55,0,0,1-1.1-2.76A15.38,15.38,0,0,1,41,81.61a11.64,11.64,0,0,1,.77-3.67,9.52,9.52,0,0,1,1.76-2.89,8.79,8.79,0,0,1,5.54-2.87c2.57-.33,4.44.37,5.62,2.06A9.79,9.79,0,0,1,56,80.29a10.84,10.84,0,0,1-2.54,6.87A8.8,8.8,0,0,1,48,90C45.36,90.31,43.49,89.61,42.31,87.93ZM48.84,75.6c-2.12.29-3.26,2.16-3.48,5.61-.15,2.61.33,4.29,1.43,5.07a2,2,0,0,0,1.47.29c2.09-.26,3.19-2.2,3.37-5.76.15-2.53-.33-4.19-1.39-4.92A1.91,1.91,0,0,0,48.84,75.6Z"/><path id="o_2" data-name="o 2" class="cls-1" d="M59.78,84.84a6.5,6.5,0,0,1-1.1-2.75,15.44,15.44,0,0,1-.18-3.56,11.58,11.58,0,0,1,.77-3.67A9.5,9.5,0,0,1,61,72a8.78,8.78,0,0,1,5.54-2.86c2.57-.33,4.44.37,5.61,2.06a9.79,9.79,0,0,1,1.32,6A10.78,10.78,0,0,1,71,84.07a8.79,8.79,0,0,1-5.54,2.87C62.86,87.19,61,86.5,59.78,84.84Zm6.53-12.36c-2.13.25-3.3,2.16-3.48,5.61q-.22,3.91,1.43,5.07a1.93,1.93,0,0,0,1.46.29c2.1-.26,3.2-2.2,3.38-5.76.15-2.53-.33-4.19-1.39-4.92A1.91,1.91,0,0,0,66.31,72.48Z"/><path id="r" class="cls-1" d="M84.84,70.75a5.27,5.27,0,0,0-3.52,2.17l-.59,11.63-4.22.55.92-17.76,3.74-.48.08,2.57a6.34,6.34,0,0,1,3.08-2.75,5,5,0,0,1,1.5-.4,5.73,5.73,0,0,1,1.66,0c-.19.77-1.21,3.66-1.51,4.47A2.6,2.6,0,0,0,84.84,70.75Z"/><path id="c" class="cls-1" d="M39.34,63l-1.87,4.84a20.24,20.24,0,0,0-3.89.15,13.61,13.61,0,0,0-8,4C22.9,75.38,22.28,81,22.09,83.67A17.12,17.12,0,0,0,22.57,88a4,4,0,0,0,2.49,3.12,11.92,11.92,0,0,0,6.54-.3,43.23,43.23,0,0,0,7-3.74s-.08,3.82-.08,4.29a25.7,25.7,0,0,1-9,4.37c-4.66,1.25-9.65,2-12.62-.92s-2.82-8.77-2.64-10.79a31.56,31.56,0,0,1,3.89-11.52c2.64-4.66,6.71-7,10.27-8.59S37.47,62.72,39.34,63Z"/><path id="s" class="cls-1" d="M102.61,84.15a8.22,8.22,0,0,0-.48-5.21,7.11,7.11,0,0,0-2.86-2.43s-2.57-1.39-3.2-1.76a14.77,14.77,0,0,1-1.79-1.21A11.19,11.19,0,0,1,92.7,72a8.64,8.64,0,0,1-1.25-1.8,9,9,0,0,1-.88-4.85,11.06,11.06,0,0,1,1.28-4.58,10.07,10.07,0,0,1,2.76-3.2,18.33,18.33,0,0,1,15.56-2,5.64,5.64,0,0,1,1.17.55l-3.52,4.66c-.48-1.17-3.2-1.46-5.25-1.32a5.74,5.74,0,0,0-5.18,5,3.74,3.74,0,0,0,1.11,3A18,18,0,0,0,102,69.61c1.73.89,3.12,1.62,4.15,2.28a16.94,16.94,0,0,1,2.49,2.28c1.51,2.09,1.95,3.3,2.1,6.75a13.85,13.85,0,0,1-.59,4.44c7-.11,12,.25,12,.25s-6.42.7-12.52,1.14a11.67,11.67,0,0,1-3,4.33c-2.83,2.35-5.51,3-8.74,3.42A16.12,16.12,0,0,1,88.11,93a11,11,0,0,1-3.89-3.56c-.18-.26-16.37,1.54-21,2.35C48.59,94.35,33,97.21,8.7,106.46c0,0,22.42-11.89,60.8-18,5.8-.84,16.85-2,17-2L88,84.92l1.32,1.17a66.28,66.28,0,0,1,7.52-.37c-1.28.37-4.26,1.25-5.76,1.8A6.94,6.94,0,0,0,95,89.1a8.13,8.13,0,0,0,4.11-.59c.92-.44,2.6-1.24,3-2.16a20.41,20.41,0,0,0,4-1c-.74,0-3.71.08-3.71.08S102.53,84.73,102.61,84.15Z"/></g></g><g id="text"><g id="ESTD_1978_text_backup" data-name="ESTD 1978 text backup"><path class="cls-2" d="M22.42,29.61s34.53-32,77.47,0"/><path class="cls-1" d="M37.14,15.6a1.64,1.64,0,0,1-.92,1.94,1.22,1.22,0,0,1-1.72-.81,1.73,1.73,0,0,1,.88-2A1.3,1.3,0,0,1,37.14,15.6Z"/><path class="cls-1" d="M42.06,11.45l-2,.7.26,1.17,1.87-.66.26,1.21-1.87.66.25,1.21,2-.69.25,1.21-3.26,1.13-1.29-6,3.27-1.13Z"/><path class="cls-1" d="M47.45,9.28l-.4,1.25a2.4,2.4,0,0,0-1.25-.11.72.72,0,0,0-.63.74c0,.33.63.44,1.33.55A1.72,1.72,0,0,1,48.07,13a2.26,2.26,0,0,1-1.94,2.53,3.09,3.09,0,0,1-2.31-.22L44.33,14a2.72,2.72,0,0,0,1.54.33c.3-.07.85-.25.77-.81s-.7-.47-1.47-.66a1.56,1.56,0,0,1-1.32-1.28,2.26,2.26,0,0,1,1.69-2.35A2.79,2.79,0,0,1,47.45,9.28Z"/><path class="cls-1" d="M48.77,8.59,53,7.89,53,9.1l-1.43.22.22,4.88-1.36.22L50.2,9.54l-1.43.22Z"/><path class="cls-1" d="M55.85,7.52a2.33,2.33,0,0,1,2.61,2.54,3.12,3.12,0,0,1-2.86,3L54,13.14l.22-5.47Zm-.33,4.37a1.79,1.79,0,0,0,1.62-1.76,1.34,1.34,0,0,0-1.47-1.51h-.18l-.15,3.27Z"/><path class="cls-1" d="M62.39,8.59l1.9-1,.66,0-1,6-1.39,0,.66-4.19-1.1.59Z"/><path class="cls-1" d="M67.89,11.89a1,1,0,0,1-.44,0A1.79,1.79,0,0,1,66,9.61a2.39,2.39,0,0,1,2.71-1.76C70.09,8,70.94,9,70.64,10.13a4,4,0,0,1-1.5,2.24l-1.8,1.5-1.69-.18ZM68.55,9a1,1,0,0,0-1.14.81.81.81,0,0,0,.7,1A1.08,1.08,0,0,0,69.25,10,.8.8,0,0,0,68.55,9Z"/><path class="cls-1" d="M77.25,10a26.66,26.66,0,0,0-5,4.7l-1.58-.33a19.12,19.12,0,0,1,4.33-4l-2.53-.55.4-1.14,4.55,1Z"/><path class="cls-1" d="M81.06,13.69a1.5,1.5,0,0,1,.33,1.83,2.46,2.46,0,0,1-2.89.92c-1.14-.37-1.88-1.36-1.44-2.27A1.94,1.94,0,0,1,78.75,13a1.29,1.29,0,0,1-.18-1.5,2.16,2.16,0,0,1,2.53-.81c1,.29,1.62,1.17,1.25,2A1.62,1.62,0,0,1,81.06,13.69Zm-2,1.65a.86.86,0,0,0,1.06-.48.67.67,0,0,0-.4-.95.88.88,0,0,0-1.06.48A.65.65,0,0,0,79,15.34Zm1.69-3.71a.85.85,0,0,0-1,.41.54.54,0,0,0,.37.8.75.75,0,0,0,.92-.4A.53.53,0,0,0,80.7,11.63Z"/><path class="cls-1" d="M86.42,16.48a1.66,1.66,0,0,1-2,.69,1.25,1.25,0,0,1-.63-1.79,1.73,1.73,0,0,1,2.06-.74A1.3,1.3,0,0,1,86.42,16.48Z"/></g></g></svg>