<svg id="logo" xmlns="http://www.w3.org/2000/svg" viewBox="0 0 100 46.02"><defs><style>.cls-1{fill:#ccc;}.cls-2{fill:#1f1f7f;}</style></defs><path class="cls-1" d="M86.3,5.31l0-.06s-.06,0-.1,0A.34.34,0,0,1,86.3,5.31Z"/><path class="cls-1" d="M75.69,1.93c-.31.19-.6.38-.89.59l-.66.54c-6.37.67-12.39,1.43-18,2.33v.14q8.91-1.07,17.27-1.72a8.76,8.76,0,0,0-1,1.49,9.78,9.78,0,0,0-1.13,4A8,8,0,0,0,72,13.53a7.57,7.57,0,0,0,1.07,1.58,11.3,11.3,0,0,0,1.38,1.3l.2.15a12.18,12.18,0,0,1-.88-.88,7.2,7.2,0,0,1-1.07-1.58A7.81,7.81,0,0,1,72,9.86a9.48,9.48,0,0,1,1.12-4,9.08,9.08,0,0,1,2.4-2.78A13.69,13.69,0,0,1,82.72.64a14.13,14.13,0,0,1,6.3.72.78.78,0,0,1,.21.09l.13-.17a6.5,6.5,0,0,0-1-.49A14.06,14.06,0,0,0,82,.07,14.53,14.53,0,0,0,80.5.26C66.17,1.54,52.72,3.06,41.16,5.12v.14C53.37,3.58,64.73,2.53,75.69,1.93Z"/><path class="cls-1" d="M67.17,10.1a4.89,4.89,0,0,0-1.3.36,6,6,0,0,0-2,1.44l0,1.51A5.46,5.46,0,0,1,66.57,11a5.07,5.07,0,0,1,1.31-.36l.56-.05a5.27,5.27,0,0,0,.16-.53A4.9,4.9,0,0,0,67.17,10.1Z"/><path class="cls-1" d="M84.84,14.92c-.91-.57-2.13-1.21-3.62-2a22,22,0,0,1-2.45-1.42l.11.12a15.45,15.45,0,0,0,3,1.87c1.49.75,2.71,1.4,3.62,2l.16.11A6,6,0,0,0,84.84,14.92Z"/><path class="cls-1" d="M70.92,27.87a33.62,33.62,0,0,1,3.77-.28c.82-.25,1.59-.46,2.07-.6a54.72,54.72,0,0,0-6.51.31Z"/><path class="cls-1" d="M89,27.21c2.28,0,4.3,0,6,0l3.8-.38s-3.93-.28-9.6-.23C89.12,26.82,89.07,27,89,27.21Z"/><path class="cls-1" d="M80.73,20.3a2.83,2.83,0,0,1,.63.81,7.31,7.31,0,0,1,.4,4.55,7.21,7.21,0,0,1-.24,1.14l.85,0a3.2,3.2,0,0,0,.09-.54,7.32,7.32,0,0,0-.41-4.55A4.15,4.15,0,0,0,80.73,20.3Z"/><path class="cls-1" d="M79.41,30c.8-.38,2.27-1.1,2.61-1.9a17.64,17.64,0,0,0,3.43-.82c-.51,0-2.4,0-3,.07a8.45,8.45,0,0,1-1.11.19c-.34.79-1.81,1.51-2.6,1.89a7.16,7.16,0,0,1-3.59.51,6.3,6.3,0,0,1-2.63-.85s0,0-.07,0a6.32,6.32,0,0,0,3.38,1.39A7.26,7.26,0,0,0,79.41,30Z"/><path class="cls-1" d="M14.26,31.76a2.73,2.73,0,0,1-.57-.26,3,3,0,0,0,1.26.83,10.4,10.4,0,0,0,5.7-.26,36.32,36.32,0,0,0,5.4-2.82c0-.58,0-1,0-1A37.31,37.31,0,0,1,20,31.5,10.36,10.36,0,0,1,14.26,31.76Z"/><polygon class="cls-1" points="59.86 11.03 59.09 26.49 59.81 26.41 60.56 11.6 63.15 11.27 63.14 10.61 59.86 11.03"/><path class="cls-1" d="M16.07,8.56c-.73.36-1.49.76-2.22,1.21-2.07.5-4.06,1-5.94,1.57v.09c1.76-.43,3.48-.81,5.17-1.16a15.82,15.82,0,0,0-4.88,5.25,27.67,27.67,0,0,0-3.4,10.05c-.13,1.77-.26,6.79,2.32,9.38a5.31,5.31,0,0,0,.78.64.35.35,0,0,0-.09-.07c-2.58-2.58-2.44-7.61-2.31-9.38a27.55,27.55,0,0,1,3.4-10,17.85,17.85,0,0,1,9-7.47c2.68-1.16,6.56-1.12,8.63-.92l.18-.45a22.39,22.39,0,0,0-7.89.28V7.45C13.33,8.5,8.23,9.65,3.73,11v.09C8,10,12.11,9.21,16.07,8.56Z"/><path class="cls-1" d="M66.45,30.8a1.09,1.09,0,0,0-.31,0A9.5,9.5,0,0,0,68,32.55,8.29,8.29,0,0,1,66.45,30.8Z"/><path class="cls-1" d="M29.32,29a4.33,4.33,0,0,0,1.17,1.13c-.16-.17-.32-.36-.48-.56a5.87,5.87,0,0,1-1-2.39,13.84,13.84,0,0,1-.16-3.1,10.14,10.14,0,0,1,.68-3.21,8.64,8.64,0,0,1,1.53-2.54,7.55,7.55,0,0,1,4.84-2.5,5.45,5.45,0,0,1,3.7.63,4.9,4.9,0,0,0-4.39-1.2,7.52,7.52,0,0,0-4.84,2.5,8.39,8.39,0,0,0-1.53,2.54,9.63,9.63,0,0,0-.69,3.21,13.24,13.24,0,0,0,.17,3.1A6.16,6.16,0,0,0,29.32,29Z"/><path class="cls-1" d="M53.63,29.92c5.06-.75,14.66-1.73,14.76-1.76l1.34-1.27-.67-.6-1.36,1.3c-.1,0-9.71,1-14.76,1.76C19.51,34.67,0,45,0,45c4-1.5,7.65-2.81,11.12-4A212.46,212.46,0,0,1,53.63,29.92Z"/><path class="cls-1" d="M49.16,25.42a1.69,1.69,0,0,0,1.26.25c1.81-.22,2.8-1.91,2.95-5,.11-2.21-.31-3.64-1.23-4.28a1.71,1.71,0,0,0-.23-.13,5.85,5.85,0,0,1,.78,3.86c-.16,3.12-1.14,4.79-2.95,5a1.88,1.88,0,0,1-1-.12A2.19,2.19,0,0,0,49.16,25.42Z"/><path class="cls-1" d="M50.47,12.56a7.52,7.52,0,0,0-4.84,2.5A8.47,8.47,0,0,0,44.1,17.6a9.82,9.82,0,0,0-.68,3.21,13.15,13.15,0,0,0,.17,3.09,6,6,0,0,0,1,2.39,4.22,4.22,0,0,0,1.17,1.14c-.16-.18-.33-.37-.48-.57a5.87,5.87,0,0,1-1-2.39,13.19,13.19,0,0,1-.16-3.09,10.08,10.08,0,0,1,.68-3.21,8.51,8.51,0,0,1,1.53-2.54,7.56,7.56,0,0,1,4.84-2.51,5.45,5.45,0,0,1,3.7.64A4.94,4.94,0,0,0,50.47,12.56Z"/><path class="cls-1" d="M36.93,19.08,36.7,19a5.78,5.78,0,0,1,.77,3.85c-.15,3.13-1.14,4.79-2.94,5a1.9,1.9,0,0,1-1-.11,2.54,2.54,0,0,0,.44.43,1.7,1.7,0,0,0,1.27.25q2.72-.34,2.94-5C38.27,21.15,37.86,19.72,36.93,19.08Z"/><path id="o_1" data-name="o 1" class="cls-2" d="M30.48,29.92a5.87,5.87,0,0,1-1-2.39,13.27,13.27,0,0,1-.16-3.1A10.14,10.14,0,0,1,30,21.22a8.77,8.77,0,0,1,1.53-2.54,7.55,7.55,0,0,1,4.84-2.5c2.24-.28,3.87.32,4.88,1.78a8.34,8.34,0,0,1,1.13,5.26,9.39,9.39,0,0,1-2.21,6,7.55,7.55,0,0,1-4.84,2.5Q32,32.14,30.48,29.92Zm5.69-10.74c-1.86.24-2.86,1.87-3,4.9-.12,2.26.3,3.73,1.24,4.4a1.72,1.72,0,0,0,1.26.25q2.72-.35,2.94-5c.12-2.21-.3-3.64-1.22-4.28A1.63,1.63,0,0,0,36.17,19.18Z"/><path id="o_2" data-name="o 2" class="cls-2" d="M45.71,27.21a5.69,5.69,0,0,1-1-2.38,13.24,13.24,0,0,1-.17-3.1,10.43,10.43,0,0,1,.69-3.21A8.64,8.64,0,0,1,46.8,16a7.5,7.5,0,0,1,4.84-2.5c2.23-.28,3.86.31,4.87,1.78a8.26,8.26,0,0,1,1.14,5.26,9.36,9.36,0,0,1-2.21,6A7.56,7.56,0,0,1,50.6,29C48.38,29.27,46.75,28.68,45.71,27.21ZM51.4,16.47q-2.79.34-3,4.91c-.12,2.26.3,3.72,1.23,4.39a1.75,1.75,0,0,0,1.27.26q2.71-.34,2.94-5c.12-2.21-.3-3.64-1.22-4.29A1.73,1.73,0,0,0,51.4,16.47Z"/><path id="r" class="cls-2" d="M67.51,14.94a4.7,4.7,0,0,0-3.07,1.89L63.93,27l-3.67.47L61,12l3.27-.42,0,2.23a5.48,5.48,0,0,1,2.69-2.39A5.07,5.07,0,0,1,68.36,11a5.16,5.16,0,0,1,1.42,0c-.16.66-1.06,3.2-1.3,3.91A5.15,5.15,0,0,0,67.51,14.94Z"/><path id="c" class="cls-2" d="M27.9,8.22l-1.63,4.21a15.83,15.83,0,0,0-3.4.14A11.77,11.77,0,0,0,16,16.09C13.57,19,13,23.9,12.89,26.22a16.17,16.17,0,0,0,.4,3.8,3.57,3.57,0,0,0,2.18,2.72,10.5,10.5,0,0,0,5.7-.27,37.73,37.73,0,0,0,6.11-3.26s-.06,3.32-.06,3.74a22.38,22.38,0,0,1-7.87,3.81c-4.07,1.08-8.42,1.77-11-.81S5.9,28.31,6,26.54a27.58,27.58,0,0,1,3.4-10A17.8,17.8,0,0,1,18.4,9C21.52,7.68,26.27,7.94,27.9,8.22Z"/><path id="s" class="cls-2" d="M83,26.63a7.39,7.39,0,0,0-.4-4.55A6.1,6.1,0,0,0,80.08,20s-2.25-1.23-2.79-1.55a13.5,13.5,0,0,1-1.57-1.06,9.9,9.9,0,0,1-1.37-1.3,7.24,7.24,0,0,1-1.08-1.58,8,8,0,0,1-.76-4.23,9.67,9.67,0,0,1,1.13-4A9.08,9.08,0,0,1,76,3.49,13.69,13.69,0,0,1,83.28,1a14.08,14.08,0,0,1,6.29.72,4.6,4.6,0,0,1,1,.5l-3.07,4c-.4-1-2.78-1.26-4.56-1.14a5,5,0,0,0-4.51,4.32,3.15,3.15,0,0,0,1,2.58,15.45,15.45,0,0,0,3,1.87c1.49.76,2.7,1.41,3.61,2a14.06,14.06,0,0,1,2.16,2c1.32,1.83,1.71,2.88,1.83,5.89a11.86,11.86,0,0,1-.51,3.85c6.13-.09,10.46.22,10.46.22s-5.6.6-10.89,1a10,10,0,0,1-2.66,3.77c-2.46,2-4.79,2.58-7.61,3a14,14,0,0,1-8.47-1.27A9.82,9.82,0,0,1,67,31.22c-.17-.21-14.24,1.35-18.28,2.05A227.06,227.06,0,0,0,1.23,46s19.51-10.36,52.93-15.7c5.06-.74,14.66-1.73,14.76-1.75l1.37-1.3,1.16,1A53.25,53.25,0,0,1,78,28c-1.11.32-3.72,1.07-5,1.58a6.32,6.32,0,0,0,3.39,1.39,7.09,7.09,0,0,0,3.58-.51c.8-.37,2.27-1.1,2.61-1.89A17.79,17.79,0,0,0,86,27.71c-.64,0-3.24.06-3.24.06A7.21,7.21,0,0,0,83,26.63Z"/></svg>