<svg id="logo" xmlns="http://www.w3.org/2000/svg" viewBox="0 0 130.38 60"><defs><style>.cls-1{fill:#ccc;}.cls-2{fill:#1f1f7f;}</style></defs><path class="cls-1" d="M112.52,6.93l.07-.08-.14-.07A.51.51,0,0,1,112.52,6.93Z"/><path class="cls-1" d="M98.68,2.51c-.4.25-.77.5-1.15.78s-.58.46-.86.71c-8.3.87-16.16,1.86-23.48,3l0,.18Q84.82,5.83,95.73,5a11.18,11.18,0,0,0-1.35,1.94,12.74,12.74,0,0,0-1.47,5.21,10.38,10.38,0,0,0,1,5.52,9.58,9.58,0,0,0,1.4,2.06,15.13,15.13,0,0,0,1.8,1.69l.26.2a12.48,12.48,0,0,1-1.15-1.15,9.24,9.24,0,0,1-1.4-2.06,10.18,10.18,0,0,1-1-5.52,12.29,12.29,0,0,1,1.47-5.21A11.53,11.53,0,0,1,98.42,4a17.84,17.84,0,0,1,9.44-3.2,18.31,18.31,0,0,1,8.2.94,1.18,1.18,0,0,1,.28.12l.17-.22A8.28,8.28,0,0,0,115.16,1,18.34,18.34,0,0,0,107,.09a17.73,17.73,0,0,0-2,.25C86.27,2,68.74,4,53.66,6.68l0,.18C69.58,4.67,84.39,3.3,98.68,2.51Z"/><path class="cls-1" d="M87.57,13.17a6.47,6.47,0,0,0-1.69.46,7.86,7.86,0,0,0-2.64,1.88l.05,2a7.15,7.15,0,0,1,3.51-3.11,6.66,6.66,0,0,1,1.7-.47c.23,0,.49-.05.74-.06.1-.3.16-.53.2-.69A6.5,6.5,0,0,0,87.57,13.17Z"/><path class="cls-1" d="M110.61,19.45c-1.19-.74-2.77-1.58-4.71-2.57A28.11,28.11,0,0,1,102.7,15l.15.15a19.88,19.88,0,0,0,3.94,2.44c1.94,1,3.52,1.83,4.71,2.57l.21.15A6.93,6.93,0,0,0,110.61,19.45Z"/><path class="cls-1" d="M92.47,36.34A43.36,43.36,0,0,1,97.38,36c1.07-.33,2.07-.61,2.7-.79a71.15,71.15,0,0,0-8.49.41Z"/><path class="cls-1" d="M116.05,35.48c3,0,5.61,0,7.77,0,2.94-.28,5-.5,5-.5s-5.12-.36-12.52-.3C116.19,35,116.13,35.24,116.05,35.48Z"/><path class="cls-1" d="M105.25,26.47a3.69,3.69,0,0,1,.83,1.05,9.58,9.58,0,0,1,.52,5.94,9.19,9.19,0,0,1-.31,1.48l1.11,0a5.81,5.81,0,0,0,.11-.71,9.49,9.49,0,0,0-.53-5.93A5.47,5.47,0,0,0,105.25,26.47Z"/><path class="cls-1" d="M103.54,39.14c1-.49,2.95-1.43,3.39-2.47a23.27,23.27,0,0,0,4.49-1.07c-.68,0-3.13,0-3.94.08a9.71,9.71,0,0,1-1.45.25c-.45,1-2.36,2-3.4,2.47a9.36,9.36,0,0,1-4.68.66A8,8,0,0,1,94.53,38l-.1,0a8.2,8.2,0,0,0,4.41,1.81A9.42,9.42,0,0,0,103.54,39.14Z"/><path class="cls-1" d="M18.59,41.41a4.28,4.28,0,0,1-.75-.34,4.14,4.14,0,0,0,1.65,1.09,13.73,13.73,0,0,0,7.43-.35,45.81,45.81,0,0,0,7-3.67c0-.76,0-1.32,0-1.32a48.62,48.62,0,0,1-8,4.25A13.62,13.62,0,0,1,18.59,41.41Z"/><polygon class="cls-1" points="78.05 14.38 77.05 34.54 77.98 34.43 78.96 15.12 82.33 14.69 82.32 13.83 78.05 14.38"/><path class="cls-1" d="M21,11.16a30.58,30.58,0,0,0-2.9,1.58c-2.7.65-5.29,1.32-7.75,2l0,.11c2.29-.56,4.53-1.05,6.74-1.51a20.52,20.52,0,0,0-6.36,6.85,35.8,35.8,0,0,0-4.43,13.1c-.18,2.31-.35,8.85,3,12.23a8.13,8.13,0,0,0,1,.84.36.36,0,0,0-.11-.1C6.84,43,7,36.39,7.18,34.08A36,36,0,0,1,11.62,21c3-5.3,7.61-8,11.68-9.73C26.79,9.73,31.85,9.78,34.55,10l.23-.59a29.49,29.49,0,0,0-10.28.36v-.1c-7.12,1.37-13.77,2.87-19.64,4.58l0,.12C10.46,13.07,15.78,12,21,11.16Z"/><path class="cls-1" d="M86.63,40.16a1.18,1.18,0,0,0-.39,0,12.27,12.27,0,0,0,2.37,2.29A11.46,11.46,0,0,1,86.63,40.16Z"/><path class="cls-1" d="M38.23,37.81a5.38,5.38,0,0,0,1.53,1.48,9.09,9.09,0,0,1-.63-.74,7.57,7.57,0,0,1-1.25-3.12,17.17,17.17,0,0,1-.21-4,13,13,0,0,1,.89-4.19,11.31,11.31,0,0,1,2-3.31,9.82,9.82,0,0,1,6.31-3.26,7.14,7.14,0,0,1,4.83.82q-2-2.05-5.74-1.56a9.82,9.82,0,0,0-6.31,3.26,11,11,0,0,0-2,3.31,12.93,12.93,0,0,0-.89,4.18,17.82,17.82,0,0,0,.21,4A8.07,8.07,0,0,0,38.23,37.81Z"/><path class="cls-1" d="M69.93,39c6.59-1,19.11-2.26,19.24-2.29l1.75-1.67-.87-.77L88.27,36c-.14,0-12.66,1.31-19.25,2.29C25.44,45.2,0,58.71,0,58.71c5.16-2,10-3.67,14.5-5.19A277.58,277.58,0,0,1,69.93,39Z"/><path class="cls-1" d="M64.09,33.14a2.23,2.23,0,0,0,1.65.33c2.36-.29,3.64-2.49,3.84-6.56.15-2.88-.39-4.74-1.6-5.58a2.19,2.19,0,0,0-.29-.17q1.19,1.48,1,5c-.2,4.07-1.48,6.24-3.84,6.56a2.6,2.6,0,0,1-1.33-.15A2.92,2.92,0,0,0,64.09,33.14Z"/><path class="cls-1" d="M65.81,16.37a9.86,9.86,0,0,0-6.31,3.26,11,11,0,0,0-2,3.31,13,13,0,0,0-.89,4.19,17.25,17.25,0,0,0,.22,4,7.9,7.9,0,0,0,1.25,3.11,5.51,5.51,0,0,0,1.53,1.48A9,9,0,0,1,59,35a7.53,7.53,0,0,1-1.26-3.11,17.85,17.85,0,0,1-.21-4,13.14,13.14,0,0,1,.89-4.18,11.58,11.58,0,0,1,2-3.32,9.86,9.86,0,0,1,6.31-3.26,7.14,7.14,0,0,1,4.83.82Q69.54,15.9,65.81,16.37Z"/><path class="cls-1" d="M48.15,24.87l-.3-.16c.79,1,1.12,2.67,1,5C48.66,33.8,47.37,36,45,36.29a2.4,2.4,0,0,1-1.33-.15,2.79,2.79,0,0,0,.58.56A2.26,2.26,0,0,0,45.9,37c2.36-.3,3.65-2.49,3.84-6.56C49.89,27.57,49.36,25.71,48.15,24.87Z"/><path id="o_1" data-name="o 1" class="cls-2" d="M39.74,39a7.51,7.51,0,0,1-1.25-3.12,17.17,17.17,0,0,1-.21-4,13,13,0,0,1,.89-4.19,11.31,11.31,0,0,1,2-3.31,9.86,9.86,0,0,1,6.31-3.26q4.38-.54,6.36,2.32,1.71,2.45,1.48,6.86a12.26,12.26,0,0,1-2.88,7.79,9.86,9.86,0,0,1-6.31,3.26Q41.77,41.9,39.74,39Zm7.42-14c-2.43.32-3.73,2.44-3.94,6.4q-.22,4.43,1.61,5.73a2.28,2.28,0,0,0,1.65.33Q50,37,50.32,30.9c.15-2.88-.4-4.74-1.6-5.58A2.21,2.21,0,0,0,47.16,25Z"/><path id="o_2" data-name="o 2" class="cls-2" d="M59.6,35.48a7.53,7.53,0,0,1-1.26-3.11,17.85,17.85,0,0,1-.21-4A13.14,13.14,0,0,1,59,24.15a11.58,11.58,0,0,1,2-3.32,9.86,9.86,0,0,1,6.31-3.26c2.92-.36,5.05.41,6.36,2.33,1.14,1.63,1.64,3.92,1.49,6.85a12.24,12.24,0,0,1-2.89,7.79A9.8,9.8,0,0,1,66,37.81Q61.62,38.35,59.6,35.48Zm7.41-14c-2.42.29-3.74,2.44-3.94,6.39-.15,2.95.4,4.86,1.62,5.73a2.19,2.19,0,0,0,1.65.33c2.35-.29,3.64-2.48,3.83-6.55.15-2.89-.39-4.75-1.59-5.59A2.18,2.18,0,0,0,67,21.48Z"/><path id="r" class="cls-2" d="M88,19.48a6.14,6.14,0,0,0-4,2.46l-.66,13.21-4.8.61,1-20.18L83.85,15l.07,2.9a7.07,7.07,0,0,1,3.51-3.11,6.1,6.1,0,0,1,1.69-.46,6.39,6.39,0,0,1,1.86,0c-.21.86-1.38,4.17-1.69,5.09A6.9,6.9,0,0,0,88,19.48Z"/><path id="c" class="cls-2" d="M36.38,10.72,34.26,16.2a20.63,20.63,0,0,0-4.44.19,15.4,15.4,0,0,0-9,4.59c-3.09,3.81-3.8,10.19-4,13.2a21.09,21.09,0,0,0,.52,5,4.61,4.61,0,0,0,2.84,3.54,13.63,13.63,0,0,0,7.43-.34,48.65,48.65,0,0,0,8-4.25s-.08,4.33-.08,4.87a29.26,29.26,0,0,1-10.26,5c-5.31,1.42-11,2.31-14.34-1.05s-3.2-9.95-3-12.26a35.69,35.69,0,0,1,4.43-13.1c3-5.31,7.61-8,11.68-9.74S34.26,10.36,36.38,10.72Z"/><path id="s" class="cls-2" d="M108.2,34.72a9.56,9.56,0,0,0-.52-5.93,8,8,0,0,0-3.27-2.73s-2.93-1.6-3.64-2a16.66,16.66,0,0,1-2-1.39A14.36,14.36,0,0,1,96.93,21a9.84,9.84,0,0,1-1.4-2.06,10.4,10.4,0,0,1-1-5.52A12.59,12.59,0,0,1,96,8.18a11.66,11.66,0,0,1,3.13-3.62,17.75,17.75,0,0,1,9.44-3.2,18.36,18.36,0,0,1,8.21.94,6.13,6.13,0,0,1,1.35.64l-4,5.27c-.52-1.31-3.62-1.64-5.94-1.48a6.55,6.55,0,0,0-5.89,5.64,4.12,4.12,0,0,0,1.26,3.36,20.53,20.53,0,0,0,3.93,2.44c2,1,3.53,1.82,4.72,2.57A18.91,18.91,0,0,1,115,23.32c1.72,2.39,2.23,3.76,2.39,7.68a15.43,15.43,0,0,1-.67,5c8-.12,13.64.28,13.64.28s-7.3.79-14.2,1.3a13.13,13.13,0,0,1-3.46,4.91c-3.22,2.65-6.25,3.36-9.92,3.89a18.42,18.42,0,0,1-11.06-1.67,12.86,12.86,0,0,1-4.41-4c-.22-.28-18.57,1.76-23.83,2.66C46.86,46.24,29.2,49.49,1.6,60c0,0,25.44-13.51,69-20.46,6.59-1,19.11-2.26,19.24-2.29l1.78-1.7,1.52,1.32a73.81,73.81,0,0,1,8.53-.42c-1.45.42-4.84,1.41-6.55,2.06a8.21,8.21,0,0,0,4.41,1.82,9.32,9.32,0,0,0,4.68-.66c1-.5,3-1.44,3.4-2.47a24.44,24.44,0,0,0,4.48-1.07c-.83,0-4.22.08-4.22.08A9.14,9.14,0,0,0,108.2,34.72Z"/></svg>